<?xml version="1.0" encoding="UTF-8"?>
<svg width="21px" height="22px" viewBox="0 0 21 22" version="1.1" xmlns="http://www.w3.org/2000/svg" xmlns:xlink="http://www.w3.org/1999/xlink">
    <!-- Generator: Sketch 52.2 (67145) - http://www.bohemiancoding.com/sketch -->
    <title>linkedin</title>
    <desc>Created with Sketch.</desc>
    <g id="linkedin" stroke="none" stroke-width="1" fill="none" fill-rule="evenodd">
        <path d="M19.4999535,0.500046492 C19.9062028,0.500046492 20.2577644,0.648483876 20.5546385,0.94535793 C20.8515125,1.24223198 20.9999499,1.59379365 20.9999499,2.00004292 L20.9999499,20 C20.9999499,20.4062493 20.8515125,20.7578109 20.5546385,21.054685 C20.2577644,21.351559 19.9062028,21.4999964 19.4999535,21.4999964 L1.49999642,21.4999964 C1.09374715,21.4999964 0.742185492,21.351559 0.445311438,21.054685 C0.148437385,20.7578109 0,20.4062493 0,20 L0,2.00004292 C0,1.59379365 0.148437385,1.24223198 0.445311438,0.94535793 C0.742185492,0.648483876 1.09374715,0.500046492 1.49999642,0.500046492 L19.4999535,0.500046492 Z M3.23436729,18.5000036 L6.3749848,18.5000036 L6.3749848,8.46877749 L3.23436729,8.46877749 L3.23436729,18.5000036 Z M4.7812386,7.10940573 C5.28123765,7.10940573 5.71092365,6.9297189 6.07029803,6.57034452 C6.42967241,6.21097014 6.60935924,5.78909614 6.60935924,5.30472254 C6.60935924,4.82034893 6.42967241,4.39847494 6.07029803,4.03910055 C5.71092365,3.67972617 5.28123765,3.50003934 4.7812386,3.50003934 C4.28123955,3.50003934 3.85936556,3.67972617 3.51561662,4.03910055 C3.17186768,4.39847494 2.99999285,4.82034893 2.99999285,5.30472254 C2.99999285,5.78909614 3.17186768,6.21097014 3.51561662,6.57034452 C3.85936556,6.9297189 4.28123955,7.10940573 4.7812386,7.10940573 Z M17.9999571,18.5000036 L17.9999571,13.0156417 C17.9999571,11.4531456 17.7812074,10.3125229 17.3437086,9.59377481 C16.7499598,8.68752721 15.7343377,8.23440305 14.2968409,8.23440305 C13.5780929,8.23440305 12.9374692,8.40627788 12.3749705,8.75002682 C11.9062216,9.03127615 11.5624727,9.39065053 11.343723,9.82814925 L11.2968481,9.82814925 L11.2968481,8.46877749 L8.29685522,8.46877749 L8.29685522,18.5000036 L11.3905978,18.5000036 L11.3905978,13.5312654 C11.3905978,12.750017 11.4999723,12.1562689 11.7187221,11.7500197 C12.0312216,11.2187712 12.5468453,10.9531466 13.2655934,10.9531466 C13.9843414,10.9531466 14.4530903,11.2500206 14.67184,11.8437694 C14.8280894,12.2187686 14.9062145,12.8125174 14.9062145,13.6250152 L14.9062145,18.5000036 L17.9999571,18.5000036 Z" fill="#000000"></path>
    </g>
</svg>