<?xml version="1.0" encoding="UTF-8"?>
<svg width="24px" height="20px" viewBox="0 0 24 20" version="1.1" xmlns="http://www.w3.org/2000/svg" xmlns:xlink="http://www.w3.org/1999/xlink">
    <!-- Generator: Sketch 52.2 (67145) - http://www.bohemiancoding.com/sketch -->
    <title>Twitter</title>
    <desc>Created with Sketch.</desc>
    <g id="Twitter" stroke="none" stroke-width="1" fill="none" fill-rule="evenodd">
        <path d="M21.5155737,5.12503308 C21.5468239,5.25003302 21.5624486,5.4531573 21.5624486,5.73440663 C21.5624486,7.98440126 21.0155747,10.1562708 19.9218275,12.2500161 C18.7968302,14.4687606 17.2187087,16.2343816 15.1874638,17.5468785 C12.9687193,19.0156247 10.4218499,19.7499982 7.54685701,19.7499982 C4.79686332,19.7499982 2.2812448,19.0156247 0,17.5468785 C0.343748942,17.5781286 0.734373488,17.5937534 1.17187221,17.5937534 C3.45311701,17.5937534 5.49998665,16.89063 7.31248257,15.4843834 C6.21873541,15.4843834 5.2578002,15.1640719 4.42967694,14.5234482 C3.60155367,13.8828245 3.03124301,13.0781394 2.71874352,12.1093914 C3.03124301,12.1406416 3.32811707,12.1562663 3.60936639,12.1562663 C4.04686511,12.1562663 4.48436455,12.1093914 4.92186327,12.0156417 C3.79686595,11.7656425 2.85936818,11.1875184 2.10936997,10.2812708 C1.35937176,9.37502319 0.984372653,8.34377564 0.984372653,7.18752816 L0.984372653,7.09377839 C1.67187125,7.50002766 2.40624402,7.71877666 3.1874924,7.75002682 C2.53124397,7.28127794 1.99999547,6.68752912 1.5937462,5.96878107 C1.18749693,5.25003302 0.984372653,4.46097193 0.984372653,3.60159921 C0.984372653,2.7422265 1.21874709,1.92191596 1.68749598,1.14066758 C2.90624307,2.67191417 4.39842677,3.89066126 6.1640478,4.79690886 C7.92966883,5.70315646 9.81247637,6.20315551 11.8124718,6.29690529 C11.7499722,5.92190618 11.7187221,5.54690707 11.7187221,5.17190797 C11.7187221,4.29690982 11.9374718,3.47659927 12.3749705,2.71097634 C12.8124692,1.9453534 13.406218,1.34379186 14.1562162,0.906293139 C14.9062145,0.46879442 15.7187123,0.250044703 16.5937104,0.250044703 C17.3124585,0.250044703 17.9765196,0.390669368 18.5858932,0.671918698 C19.1952667,0.953168027 19.7343279,1.32816713 20.2030768,1.79691602 C21.3280741,1.5781663 22.3749464,1.18754247 23.3436943,0.625043809 C22.9686952,1.78129129 22.2499472,2.68753889 21.1874495,3.34378733 C22.1249472,3.21878739 23.062445,2.9531635 23.9999428,2.54691423 C23.3124442,3.5469116 22.4843216,4.40628503 21.5155737,5.12503308 Z" id="Twitter-Copy" fill="#000000"></path>
    </g>
</svg>