<svg width="13" height="9" viewBox="0 0 13 9" fill="none" xmlns="http://www.w3.org/2000/svg">
<path d="M12.5391 1.40625C12.6328 1.82812 12.7266 2.48438 12.7734 3.32812L12.7969 4.5L12.7734 5.67188C12.7266 6.5625 12.6328 7.19531 12.5391 7.61719C12.4453 7.89844 12.3047 8.13281 12.1172 8.32031C11.9062 8.53125 11.6719 8.67188 11.3906 8.74219C10.9688 8.85938 10.0312 8.92969 8.53125 8.97656L6.39844 9L4.26562 8.97656C2.76562 8.92969 1.80469 8.85938 1.40625 8.74219C1.125 8.67188 0.867188 8.53125 0.679688 8.32031C0.46875 8.13281 0.328125 7.89844 0.257812 7.61719C0.140625 7.19531 0.0703125 6.5625 0.0234375 5.67188L0 4.5C0 4.17188 0 3.77344 0.0234375 3.32812C0.0703125 2.48438 0.140625 1.82812 0.257812 1.40625C0.328125 1.125 0.46875 0.890625 0.679688 0.679688C0.867188 0.492188 1.125 0.351562 1.40625 0.257812C1.80469 0.164062 2.76562 0.0703125 4.26562 0.0234375L6.39844 0L8.53125 0.0234375C10.0312 0.0703125 10.9688 0.164062 11.3906 0.257812C11.6719 0.351562 11.9062 0.492188 12.1172 0.679688C12.3047 0.890625 12.4453 1.125 12.5391 1.40625ZM5.08594 6.42188L8.4375 4.5L5.08594 2.60156V6.42188Z" fill="#414141"/>
</svg>
